<svg xmlns="http://www.w3.org/2000/svg" viewBox="0 0 16 16">
  <path
    d="M8 0C3.58 0 0 3.67 0 8.2c0 3.62 2.29 6.69 5.47 7.78.4.08.55-.18.55-.4 0-.2-.01-.85-.01-1.54-2.01.38-2.53-.5-2.69-.96-.09-.24-.48-.96-.82-1.16-.28-.15-.68-.52-.01-.53.63-.01 1.08.59 1.23.84.72 1.24 1.87.89 2.33.68.07-.53.28-.89.51-1.1-1.78-.21-3.64-.91-3.64-4.04 0-.89.31-1.63.82-2.2-.08-.21-.36-1.04.08-2.17 0 0 .67-.22 2.2.84A7.42 7.42 0 0 1 8 3.97c.68 0 1.36.09 1.99.27 1.53-1.06 2.2-.84 2.2-.84.44 1.13.16 1.96.08 2.17.51.57.82 1.3.82 2.2 0 3.14-1.87 3.83-3.65 4.04.29.26.54.76.54 1.53 0 1.1-.01 1.99-.01 2.26 0 .22.15.48.55.4A8.11 8.11 0 0 0 16 8.2C16 3.67 12.42 0 8 0Z"
  />
</svg>
